v 26.007288 56.187698 24.064465
v 26.007288 56.187698 11.916930
v 28.472616 56.187698 11.916930
v 28.472616 56.187698 24.064465
v 26.007288 61.406708 24.064465
v 26.007288 60.251774 11.916930
v 28.472616 61.406708 24.064465
v 28.472616 60.251774 11.916930
v 26.007288 56.187698 -24.525673
v 26.007288 61.406708 -24.525673
v 28.472616 61.406708 -24.525673
v 28.472616 56.187698 -24.525673
v 28.472616 56.187698 -0.230604
v 28.472616 56.187698 -12.378139
v 28.472616 60.251774 -12.378139
v 28.472616 59.831295 -0.230604
v 26.007288 56.187698 -0.230604
v 26.007288 56.187698 -12.378139
v 26.007288 59.831295 -0.230604
v 26.007288 60.251774 -12.378139
v 26.007288 71.187698 24.064465
v 26.007288 71.187698 11.916930
v 28.472616 71.187698 11.916930
v 28.472616 71.187698 24.064465
v 26.007288 76.406708 24.064465
v 26.007288 75.251770 11.916930
v 28.472616 76.406708 24.064465
v 28.472616 75.251770 11.916930
v 26.007288 71.187698 -24.525673
v 26.007288 76.406708 -24.525673
v 28.472616 76.406708 -24.525673
v 28.472616 71.187698 -24.525673
v 28.472616 71.187698 -0.230604
v 28.472616 71.187698 -12.378139
v 28.472616 75.251770 -12.378139
v 28.472616 74.831299 -0.230604
v 26.007288 71.187698 -0.230604
v 26.007288 71.187698 -12.378139
v 26.007288 74.831299 -0.230604
v 26.007288 75.251770 -12.378139
v 26.007288 86.187698 24.064465
v 26.007288 86.187698 11.916930
v 28.472616 86.187698 11.916930
v 28.472616 86.187698 24.064465
v 26.007288 91.406708 24.064465
v 26.007288 90.251770 11.916930
v 28.472616 91.406708 24.064465
v 28.472616 90.251770 11.916930
v 26.007288 86.187698 -24.525673
v 26.007288 91.406708 -24.525673
v 28.472616 91.406708 -24.525673
v 28.472616 86.187698 -24.525673
v 28.472616 86.187698 -0.230604
v 28.472616 86.187698 -12.378139
v 28.472616 90.251770 -12.378139
v 28.472616 89.831299 -0.230604
v 26.007288 86.187698 -0.230604
v 26.007288 86.187698 -12.378139
v 26.007288 89.831299 -0.230604
v 26.007288 90.251770 -12.378139
v 23.767338 5.634624 24.064465
v 23.767338 5.634624 -24.525673
v 26.232662 5.634624 -24.525673
v 26.232662 5.634624 24.064465
v 23.767338 10.853636 24.064465
v 23.767338 10.853636 -24.525673
v 26.232662 10.853636 24.064465
v 26.232662 10.853636 -24.525673
v -30.000000 19.485102 -27.909109
v -30.000000 23.050770 -27.909109
v 22.257317 23.050770 -27.909109
v 22.257317 19.485102 -27.909109
v -30.000000 19.485102 27.909109
v -30.000000 23.050770 27.909109
v 22.257317 19.485102 27.909109
v 22.257317 23.050770 27.909109
v -29.799999 23.250771 -27.723049
v -29.799999 23.250771 27.723049
v 22.057316 23.250771 27.723049
v 22.057316 23.250771 -27.723049
v -29.799999 19.285101 27.723049
v -29.799999 19.285101 -27.723049
v 22.057316 19.285101 -27.723049
v 22.057316 19.285101 27.723049
v 22.100000 -42.504318 22.100000
v 22.100000 20.109758 22.100000
v 27.900000 20.109758 22.100000
v 27.900000 -42.504318 22.100000
v 22.100000 -42.504318 27.899998
v 22.100000 20.109758 27.899998
v 27.900000 -42.504318 27.899998
v 27.900000 20.109758 27.899998
v 25.368595 95.911278 22.899998
v 25.368595 95.911278 27.100000
v 29.568594 95.911278 27.100000
v 29.568594 95.911278 22.899998
v 22.400000 -42.804321 27.600000
v 22.400000 -42.804321 22.400000
v 27.600000 -42.804321 22.400000
v 27.600000 -42.804321 27.600000
v 29.119926 59.275097 27.899998
v 29.119926 59.275097 22.100000
v 23.319925 59.275097 27.899998
v 23.319925 59.275097 22.100000
v 30.368595 93.432549 27.899998
v 30.368595 93.432549 22.100000
v 24.568594 93.432549 27.899998
v 24.568594 93.432549 22.100000
v 22.100000 -42.504318 -27.899998
v 22.100000 20.109758 -27.899998
v 27.900000 20.109758 -27.899998
v 27.900000 -42.504318 -27.899998
v 22.100000 -42.504318 -22.100000
v 22.100000 20.109758 -22.100000
v 27.900000 -42.504318 -22.100000
v 27.900000 20.109758 -22.100000
v 25.368595 95.911278 -27.100000
v 25.368595 95.911278 -22.899998
v 29.568594 95.911278 -22.899998
v 29.568594 95.911278 -27.100000
v 22.400000 -42.804321 -22.400000
v 22.400000 -42.804321 -27.600000
v 27.600000 -42.804321 -27.600000
v 27.600000 -42.804321 -22.400000
v 29.119926 59.275097 -22.100000
v 29.119926 59.275097 -27.899998
v 23.319925 59.275097 -22.100000
v 23.319925 59.275097 -27.899998
v 30.368595 93.432549 -22.100000
v 30.368595 93.432549 -27.899998
v 24.568594 93.432549 -22.100000
v 24.568594 93.432549 -27.899998
v -27.900000 -42.504318 21.568144
v -27.900000 20.109758 21.568144
v -22.100000 20.109758 21.568144
v -22.100000 -42.504318 21.568144
v -27.900000 -42.504318 27.228563
v -27.900000 20.109758 27.228563
v -22.100000 -42.504318 27.228563
v -22.100000 20.109758 27.228563
v -27.599998 -42.804321 26.928562
v -27.599998 -42.804321 21.868145
v -22.400000 -42.804321 21.868145
v -22.400000 -42.804321 26.928562
v -27.900000 -42.504318 -27.228563
v -27.900000 20.109758 -27.228563
v -22.100000 20.109758 -27.228563
v -22.100000 -42.504318 -27.228563
v -27.900000 -42.504318 -21.568144
v -27.900000 20.109758 -21.568144
v -22.100000 -42.504318 -21.568144
v -22.100000 20.109758 -21.568144
v -27.599998 -42.804321 -21.868145
v -27.599998 -42.804321 -26.928562
v -22.400000 -42.804321 -26.928562
v -22.400000 -42.804321 -21.868145
vt 0.609360 0.983116
vt 0.609360 0.900724
vt 0.626063 0.900724
vt 0.626063 0.983116
vt 0.574000 0.986095
vt 0.574000 0.902583
vt 0.557222 0.983143
vt 0.557222 0.901120
vt 0.661423 0.901093
vt 0.661423 0.983116
vt 0.609360 0.653550
vt 0.574000 0.653550
vt 0.574000 0.636828
vt 0.609360 0.636828
vt 0.661423 0.999837
vt 0.626063 0.999837
vt 0.626063 0.818333
vt 0.626063 0.735941
vt 0.661423 0.737786
vt 0.661423 0.819306
vt 0.609360 0.818333
vt 0.609360 0.735941
vt 0.574000 0.819310
vt 0.574000 0.736310
vt 0.557222 0.819332
vt 0.557222 0.737813
vt 0.626063 0.653550
vt 0.661423 0.656502
vt 0.557222 0.656529
vt 0.714284 0.983116
vt 0.714284 0.900724
vt 0.730860 0.900724
vt 0.730860 0.983116
vt 0.679191 0.986095
vt 0.679191 0.902583
vt 0.662540 0.983143
vt 0.662540 0.901120
vt 0.765953 0.901093
vt 0.765953 0.983116
vt 0.714284 0.653550
vt 0.679191 0.653550
vt 0.679191 0.636828
vt 0.714284 0.636828
vt 0.765953 0.999837
vt 0.730861 0.999837
vt 0.730860 0.818333
vt 0.730860 0.735941
vt 0.765953 0.737786
vt 0.765953 0.819306
vt 0.714284 0.818333
vt 0.714284 0.735941
vt 0.679191 0.819310
vt 0.679191 0.736310
vt 0.662540 0.819332
vt 0.662540 0.737813
vt 0.730861 0.653550
vt 0.765953 0.656502
vt 0.662540 0.656529
vt 0.818813 0.983116
vt 0.818813 0.900724
vt 0.835390 0.900724
vt 0.835390 0.983116
vt 0.783721 0.986095
vt 0.783721 0.902583
vt 0.767070 0.983143
vt 0.767070 0.901120
vt 0.870483 0.901093
vt 0.870483 0.983116
vt 0.818813 0.653550
vt 0.783721 0.653550
vt 0.783721 0.636828
vt 0.818813 0.636828
vt 0.870483 0.999837
vt 0.835390 0.999837
vt 0.835390 0.818333
vt 0.835390 0.735941
vt 0.870483 0.737786
vt 0.870483 0.819306
vt 0.818813 0.818333
vt 0.818813 0.735941
vt 0.783721 0.819310
vt 0.783721 0.736310
vt 0.767070 0.819332
vt 0.767070 0.737813
vt 0.835390 0.653550
vt 0.870483 0.656502
vt 0.767070 0.656529
vt 0.502166 0.983116
vt 0.502166 0.653550
vt 0.519471 0.653550
vt 0.519471 0.983116
vt 0.465532 0.983116
vt 0.465532 0.653550
vt 0.448227 0.983116
vt 0.448227 0.653550
vt 0.556105 0.653550
vt 0.556105 0.983116
vt 0.465532 0.636828
vt 0.502166 0.636828
vt 0.502166 0.999837
vt 0.465532 0.999837
vt 0.445193 0.975689
vt 0.420164 0.975689
vt 0.420164 0.654706
vt 0.445193 0.654706
vt 0.027744 0.998100
vt 0.027744 0.976198
vt 0.419553 0.976198
vt 0.419553 0.998100
vt 0.002104 0.654706
vt 0.027132 0.654706
vt 0.027132 0.975689
vt 0.002104 0.975689
vt 0.419553 0.632295
vt 0.419553 0.654197
vt 0.027744 0.654197
vt 0.027744 0.632295
vt 0.418247 0.974461
vt 0.029050 0.974461
vt 0.029050 0.655934
vt 0.418247 0.655934
vt 0.029050 0.312031
vt 0.418247 0.312031
vt 0.418247 0.630558
vt 0.029050 0.630558
vt 0.447110 0.974461
vt 0.447110 0.655934
vt 0.029050 0.999837
vt 0.418247 0.999837
vt 0.000186 0.655934
vt 0.000186 0.974461
vt 0.038876 0.194640
vt 0.460873 0.209026
vt 0.460765 0.242667
vt 0.038783 0.233079
vt 0.041096 0.156260
vt 0.462434 0.175419
vt 0.038059 0.271502
vt 0.460145 0.276295
vt 0.458955 0.309916
vt 0.037091 0.309916
vt 0.998246 0.311054
vt 0.969945 0.309916
vt 0.971211 0.282100
vt 0.999512 0.283237
vt 0.000186 0.268968
vt 0.000835 0.234520
vt 0.035886 0.235025
vt 0.035237 0.269473
vt 0.724211 0.279294
vt 0.724766 0.248666
vt 0.722930 0.309916
vt 0.724930 0.218028
vt 0.726080 0.187407
vt 0.954519 0.281910
vt 0.955018 0.253898
vt 0.953166 0.309916
vt 0.955239 0.225879
vt 0.956030 0.197864
vt 0.971706 0.254277
vt 0.972024 0.226452
vt 0.972788 0.198626
vt 0.036010 0.196632
vt 0.035926 0.231095
vt 0.038125 0.158096
vt 0.036135 0.192506
vt 0.035150 0.273430
vt 0.034282 0.307871
vt 0.038876 0.038869
vt 0.460873 0.053255
vt 0.460765 0.086896
vt 0.038783 0.077307
vt 0.041096 0.000488
vt 0.462434 0.019647
vt 0.038059 0.115730
vt 0.460145 0.120524
vt 0.458955 0.154145
vt 0.037091 0.154145
vt 0.998246 0.155282
vt 0.969945 0.154145
vt 0.971211 0.126328
vt 0.999512 0.127466
vt 0.000186 0.113196
vt 0.000835 0.078748
vt 0.035886 0.079253
vt 0.035237 0.113702
vt 0.724211 0.123523
vt 0.724766 0.092894
vt 0.722930 0.154145
vt 0.724930 0.062257
vt 0.726080 0.031636
vt 0.954519 0.126139
vt 0.955018 0.098126
vt 0.953166 0.154145
vt 0.955239 0.070108
vt 0.956030 0.042092
vt 0.971706 0.098505
vt 0.972024 0.070680
vt 0.972788 0.042855
vt 0.036010 0.040861
vt 0.035926 0.075323
vt 0.038125 0.002324
vt 0.036135 0.036735
vt 0.035150 0.117658
vt 0.034282 0.152099
vt 0.464380 0.565457
vt 0.903891 0.565457
vt 0.903891 0.601083
vt 0.464380 0.601083
vt 0.464380 0.530689
vt 0.903891 0.530689
vt 0.464380 0.495063
vt 0.903891 0.495063
vt 0.903891 0.635851
vt 0.464380 0.635851
vt 0.943624 0.565457
vt 0.943624 0.601083
vt 0.425881 0.567300
vt 0.461402 0.567300
vt 0.461402 0.599240
vt 0.425881 0.599240
vt 0.461402 0.602926
vt 0.461402 0.634009
vt 0.461402 0.532531
vt 0.461402 0.563614
vt 0.461402 0.496906
vt 0.461402 0.528846
vt 0.464380 0.403058
vt 0.903891 0.403058
vt 0.903891 0.449126
vt 0.464380 0.449126
vt 0.464380 0.358099
vt 0.903891 0.358099
vt 0.464380 0.312031
vt 0.903891 0.312031
vt 0.903891 0.494086
vt 0.464380 0.494086
vt 0.943624 0.403058
vt 0.943624 0.449126
vt 0.425881 0.405441
vt 0.461402 0.405441
vt 0.461402 0.446744
vt 0.425881 0.446744
vt 0.461402 0.451509
vt 0.461402 0.491703
vt 0.461402 0.360482
vt 0.461402 0.400676
vt 0.461402 0.314414
vt 0.461402 0.355716
vn 0.000000 -1.000000 0.000000
vn -1.000000 0.000000 0.000000
vn 0.000000 0.995511 -0.094649
vn 0.000000 0.997908 -0.064650
vn 1.000000 0.000000 0.000000
vn 0.000000 0.000000 -1.000000
vn 0.000000 0.000000 1.000000
vn 0.000000 1.000000 0.000000
vn 0.000000 0.997908 0.064650
vn 0.000000 0.995511 0.094649
vn 0.000000 0.995511 -0.094649
vn 0.000000 0.997908 -0.064650
vn 0.000000 0.997908 0.064650
vn 0.000000 0.995511 0.094649
vn 0.707107 0.707107 0.000000
vn 0.000000 0.681133 0.732160
vn -0.707107 0.707107 0.000000
vn 0.000000 0.681133 -0.732160
vn 0.707107 -0.707107 0.000000
vn 0.000000 -0.681133 -0.732160
vn -0.707107 -0.707107 0.000000
vn 0.000000 -0.681133 0.732160
vn -0.999879 0.015568 0.000000
vn 0.999879 -0.015568 0.000000
vn 0.999428 -0.033833 0.000000
vn -0.999428 0.033833 0.000000
vn 0.990517 0.137390 0.000000
vn 0.000000 0.155463 0.987842
vn -0.984837 0.173484 0.000000
vn 0.000000 0.155463 -0.987842
vn 0.951663 0.307145 0.000000
vn 0.000000 0.307145 0.951663
vn -0.951663 0.307145 0.000000
vn 0.000000 0.307145 -0.951663
vn 0.000000 -0.707107 -0.707107
vn 0.000000 -0.707107 0.707107
vn 0.000000 -0.707109 -0.707105
vn 0.000000 -0.707109 0.707105
f 4/4/1 1/1/1 2/2/1
f 2/2/1 3/3/1 4/4/1
f 1/1/2 5/5/2 6/6/2
f 6/6/2 2/2/2 1/1/2
f 5/5/3 7/7/3 8/8/4
f 8/8/4 6/6/4 5/5/3
f 7/10/5 4/4/5 3/3/5
f 3/3/5 8/9/5 7/10/5
f 12/14/6 9/11/6 10/12/6
f 10/12/6 11/13/6 12/14/6
f 7/10/7 5/15/7 1/16/7
f 1/16/7 4/4/7 7/10/7
f 16/20/5 13/17/5 14/18/5
f 14/18/5 15/19/5 16/20/5
f 13/17/1 17/21/1 18/22/1
f 18/22/1 14/18/1 13/17/1
f 17/21/2 19/23/2 20/24/2
f 20/24/2 18/22/2 17/21/2
f 19/23/8 16/25/8 15/26/9
f 15/26/9 20/24/9 19/23/8
f 15/19/5 14/18/5 12/27/5
f 12/27/5 11/28/5 15/19/5
f 14/18/1 18/22/1 9/11/1
f 9/11/1 12/27/1 14/18/1
f 18/22/2 20/24/2 10/12/2
f 10/12/2 9/11/2 18/22/2
f 20/24/9 15/26/9 11/29/10
f 11/29/10 10/12/10 20/24/9
f 8/9/5 3/3/5 13/17/5
f 13/17/5 16/20/5 8/9/5
f 3/3/1 2/2/1 17/21/1
f 17/21/1 13/17/1 3/3/1
f 2/2/2 6/6/2 19/23/2
f 19/23/2 17/21/2 2/2/2
f 6/6/4 8/8/4 16/25/8
f 16/25/8 19/23/8 6/6/4
f 24/33/1 21/30/1 22/31/1
f 22/31/1 23/32/1 24/33/1
f 21/30/2 25/34/2 26/35/2
f 26/35/2 22/31/2 21/30/2
f 25/34/11 27/36/11 28/37/12
f 28/37/12 26/35/12 25/34/11
f 27/39/5 24/33/5 23/32/5
f 23/32/5 28/38/5 27/39/5
f 32/43/6 29/40/6 30/41/6
f 30/41/6 31/42/6 32/43/6
f 27/39/7 25/44/7 21/45/7
f 21/45/7 24/33/7 27/39/7
f 36/49/5 33/46/5 34/47/5
f 34/47/5 35/48/5 36/49/5
f 33/46/1 37/50/1 38/51/1
f 38/51/1 34/47/1 33/46/1
f 37/50/2 39/52/2 40/53/2
f 40/53/2 38/51/2 37/50/2
f 39/52/8 36/54/8 35/55/13
f 35/55/13 40/53/13 39/52/8
f 35/48/5 34/47/5 32/56/5
f 32/56/5 31/57/5 35/48/5
f 34/47/1 38/51/1 29/40/1
f 29/40/1 32/56/1 34/47/1
f 38/51/2 40/53/2 30/41/2
f 30/41/2 29/40/2 38/51/2
f 40/53/13 35/55/13 31/58/14
f 31/58/14 30/41/14 40/53/13
f 28/38/5 23/32/5 33/46/5
f 33/46/5 36/49/5 28/38/5
f 23/32/1 22/31/1 37/50/1
f 37/50/1 33/46/1 23/32/1
f 22/31/2 26/35/2 39/52/2
f 39/52/2 37/50/2 22/31/2
f 26/35/12 28/37/12 36/54/8
f 36/54/8 39/52/8 26/35/12
f 44/62/1 41/59/1 42/60/1
f 42/60/1 43/61/1 44/62/1
f 41/59/2 45/63/2 46/64/2
f 46/64/2 42/60/2 41/59/2
f 45/63/11 47/65/11 48/66/12
f 48/66/12 46/64/12 45/63/11
f 47/68/5 44/62/5 43/61/5
f 43/61/5 48/67/5 47/68/5
f 52/72/6 49/69/6 50/70/6
f 50/70/6 51/71/6 52/72/6
f 47/68/7 45/73/7 41/74/7
f 41/74/7 44/62/7 47/68/7
f 56/78/5 53/75/5 54/76/5
f 54/76/5 55/77/5 56/78/5
f 53/75/1 57/79/1 58/80/1
f 58/80/1 54/76/1 53/75/1
f 57/79/2 59/81/2 60/82/2
f 60/82/2 58/80/2 57/79/2
f 59/81/8 56/83/8 55/84/13
f 55/84/13 60/82/13 59/81/8
f 55/77/5 54/76/5 52/85/5
f 52/85/5 51/86/5 55/77/5
f 54/76/1 58/80/1 49/69/1
f 49/69/1 52/85/1 54/76/1
f 58/80/2 60/82/2 50/70/2
f 50/70/2 49/69/2 58/80/2
f 60/82/13 55/84/13 51/87/14
f 51/87/14 50/70/14 60/82/13
f 48/67/5 43/61/5 53/75/5
f 53/75/5 56/78/5 48/67/5
f 43/61/1 42/60/1 57/79/1
f 57/79/1 53/75/1 43/61/1
f 42/60/2 46/64/2 59/81/2
f 59/81/2 57/79/2 42/60/2
f 46/64/12 48/66/12 56/83/8
f 56/83/8 59/81/8 46/64/12
f 64/91/1 61/88/1 62/89/1
f 62/89/1 63/90/1 64/91/1
f 61/88/2 65/92/2 66/93/2
f 66/93/2 62/89/2 61/88/2
f 65/92/8 67/94/8 68/95/8
f 68/95/8 66/93/8 65/92/8
f 67/97/5 64/91/5 63/90/5
f 63/90/5 68/96/5 67/97/5
f 63/99/6 62/89/6 66/93/6
f 66/93/6 68/98/6 63/99/6
f 67/101/7 65/92/7 61/88/7
f 61/88/7 64/100/7 67/101/7
f 72/105/6 69/102/6 70/103/6
f 70/103/6 71/104/6 72/105/6
f 69/109/2 73/106/2 74/107/2
f 74/107/2 70/108/2 69/109/2
f 73/113/7 75/110/7 76/111/7
f 76/111/7 74/112/7 73/113/7
f 75/117/5 72/114/5 71/115/5
f 71/115/5 76/116/5 75/117/5
f 80/121/8 77/118/8 78/119/8
f 78/119/8 79/120/8 80/121/8
f 84/125/1 81/122/1 82/123/1
f 82/123/1 83/124/1 84/125/1
f 80/121/15 79/120/15 76/116/15
f 76/116/15 71/115/15 80/121/15
f 79/120/16 78/119/16 74/112/16
f 74/112/16 76/111/16 79/120/16
f 78/119/17 77/118/17 70/108/17
f 70/108/17 74/107/17 78/119/17
f 77/118/18 80/121/18 71/104/18
f 71/104/18 70/103/18 77/118/18
f 84/125/19 83/124/19 72/114/19
f 72/114/19 75/117/19 84/125/19
f 83/127/20 82/126/20 69/102/20
f 69/102/20 72/105/20 83/127/20
f 82/129/21 81/128/21 73/106/21
f 73/106/21 69/109/21 82/129/21
f 81/131/22 84/130/22 75/110/22
f 75/110/22 73/113/22 81/131/22
f 88/135/6 85/132/6 86/133/6
f 86/133/6 87/134/6 88/135/6
f 85/132/2 89/136/2 90/137/23
f 90/137/23 86/133/23 85/132/2
f 89/141/7 91/138/7 92/139/7
f 92/139/7 90/140/7 89/141/7
f 91/138/5 88/135/5 87/134/24
f 87/134/24 92/139/24 91/138/5
f 96/145/8 93/142/8 94/143/8
f 94/143/8 95/144/8 96/145/8
f 100/149/1 97/146/1 98/147/1
f 98/147/1 99/148/1 100/149/1
f 102/151/25 101/150/25 92/139/24
f 92/139/24 87/134/24 102/151/25
f 101/150/7 103/152/7 90/140/7
f 90/140/7 92/139/7 101/150/7
f 103/154/26 104/153/26 86/133/23
f 86/133/23 90/137/23 103/154/26
f 104/153/6 102/151/6 87/134/6
f 87/134/6 86/133/6 104/153/6
f 106/156/27 105/155/27 101/150/25
f 101/150/25 102/151/25 106/156/27
f 105/155/28 107/157/28 103/152/7
f 103/152/7 101/150/7 105/155/28
f 107/159/29 108/158/29 104/153/26
f 104/153/26 103/154/26 107/159/29
f 108/158/30 106/156/30 102/151/6
f 102/151/6 104/153/6 108/158/30
f 96/160/31 95/144/31 105/155/27
f 105/155/27 106/156/27 96/160/31
f 95/144/32 94/143/32 107/157/28
f 107/157/28 105/155/28 95/144/32
f 94/162/33 93/161/33 108/158/29
f 108/158/29 107/159/29 94/162/33
f 93/161/34 96/160/34 106/156/30
f 106/156/30 108/158/30 93/161/34
f 100/149/19 99/148/19 88/135/19
f 88/135/19 91/138/19 100/149/19
f 99/164/35 98/163/35 85/132/35
f 85/132/35 88/135/35 99/164/35
f 98/166/21 97/165/21 89/136/21
f 89/136/21 85/132/21 98/166/21
f 97/168/36 100/167/36 91/138/36
f 91/138/36 89/141/36 97/168/36
f 112/172/6 109/169/6 110/170/6
f 110/170/6 111/171/6 112/172/6
f 109/169/2 113/173/2 114/174/23
f 114/174/23 110/170/23 109/169/2
f 113/178/7 115/175/7 116/176/7
f 116/176/7 114/177/7 113/178/7
f 115/175/5 112/172/5 111/171/24
f 111/171/24 116/176/24 115/175/5
f 120/182/8 117/179/8 118/180/8
f 118/180/8 119/181/8 120/182/8
f 124/186/1 121/183/1 122/184/1
f 122/184/1 123/185/1 124/186/1
f 126/188/25 125/187/25 116/176/24
f 116/176/24 111/171/24 126/188/25
f 125/187/7 127/189/7 114/177/7
f 114/177/7 116/176/7 125/187/7
f 127/191/26 128/190/26 110/170/23
f 110/170/23 114/174/23 127/191/26
f 128/190/6 126/188/6 111/171/6
f 111/171/6 110/170/6 128/190/6
f 130/193/27 129/192/27 125/187/25
f 125/187/25 126/188/25 130/193/27
f 129/192/28 131/194/28 127/189/7
f 127/189/7 125/187/7 129/192/28
f 131/196/29 132/195/29 128/190/26
f 128/190/26 127/191/26 131/196/29
f 132/195/30 130/193/30 126/188/6
f 126/188/6 128/190/6 132/195/30
f 120/197/31 119/181/31 129/192/27
f 129/192/27 130/193/27 120/197/31
f 119/181/32 118/180/32 131/194/28
f 131/194/28 129/192/28 119/181/32
f 118/199/33 117/198/33 132/195/29
f 132/195/29 131/196/29 118/199/33
f 117/198/34 120/197/34 130/193/30
f 130/193/30 132/195/30 117/198/34
f 124/186/19 123/185/19 112/172/19
f 112/172/19 115/175/19 124/186/19
f 123/201/35 122/200/35 109/169/35
f 109/169/35 112/172/35 123/201/35
f 122/203/21 121/202/21 113/173/21
f 113/173/21 109/169/21 122/203/21
f 121/205/36 124/204/36 115/175/36
f 115/175/36 113/178/36 121/205/36
f 136/209/6 133/206/6 134/207/6
f 134/207/6 135/208/6 136/209/6
f 133/206/2 137/210/2 138/211/2
f 138/211/2 134/207/2 133/206/2
f 137/210/7 139/212/7 140/213/7
f 140/213/7 138/211/7 137/210/7
f 139/215/5 136/209/5 135/208/5
f 135/208/5 140/214/5 139/215/5
f 135/208/8 134/207/8 138/216/8
f 138/216/8 140/217/8 135/208/8
f 144/221/1 141/218/1 142/219/1
f 142/219/1 143/220/1 144/221/1
f 144/223/19 143/222/19 136/209/19
f 136/209/19 139/215/19 144/223/19
f 143/220/37 142/219/37 133/206/37
f 133/206/37 136/209/37 143/220/37
f 142/225/21 141/224/21 137/210/21
f 137/210/21 133/206/21 142/225/21
f 141/227/38 144/226/38 139/212/38
f 139/212/38 137/210/38 141/227/38
f 148/231/6 145/228/6 146/229/6
f 146/229/6 147/230/6 148/231/6
f 145/228/2 149/232/2 150/233/2
f 150/233/2 146/229/2 145/228/2
f 149/232/7 151/234/7 152/235/7
f 152/235/7 150/233/7 149/232/7
f 151/237/5 148/231/5 147/230/5
f 147/230/5 152/236/5 151/237/5
f 147/230/8 146/229/8 150/238/8
f 150/238/8 152/239/8 147/230/8
f 156/243/1 153/240/1 154/241/1
f 154/241/1 155/242/1 156/243/1
f 156/245/19 155/244/19 148/231/19
f 148/231/19 151/237/19 156/245/19
f 155/242/37 154/241/37 145/228/37
f 145/228/37 148/231/37 155/242/37
f 154/247/21 153/246/21 149/232/21
f 149/232/21 145/228/21 154/247/21
f 153/249/36 156/248/36 151/234/36
f 151/234/36 149/232/36 153/249/36
